<svg width="28" height="28" viewBox="0 0 28 28" fill="none" xmlns="http://www.w3.org/2000/svg">
<g clip-path="url(#clip0_0_27675)">
<path d="M27.1244 27.5662V17.7928C27.1244 12.9895 26.0903 9.32031 20.4865 9.32031C17.7846 9.32031 15.9834 10.788 15.2495 12.189H15.1828V9.75394H9.87915V27.5662H15.4163V18.7268C15.4163 16.3918 15.8499 14.157 18.7186 14.157C21.5539 14.157 21.5872 16.7921 21.5872 18.8602V27.5329H27.1244V27.5662Z" fill="#929292"/>
<path d="M0.873291 9.75H6.41044V27.5623H0.873291V9.75Z" fill="#929292"/>
<path d="M3.6419 0.875C1.87402 0.875 0.439697 2.30932 0.439697 4.0772C0.439697 5.84509 1.87402 7.31277 3.6419 7.31277C5.40979 7.31277 6.84411 5.84509 6.84411 4.0772C6.84411 2.30932 5.40979 0.875 3.6419 0.875Z" fill="#929292"/>
</g>
<defs>
<clipPath id="clip0_0_27675">
<rect width="28" height="28" fill="white"/>
</clipPath>
</defs>
</svg>
